<svg xmlns="http://www.w3.org/2000/svg" width="64" height="64" viewBox="0 0 64 64">
    <path fill="#FF444F" d="M51 0c.552 0 1 .448 1 1v3h5c.552 0 1 .448 1 1v3h4c1.105 0 2 .895 2 2v52c0 1.105-.895 2-2 2H2c-1.105 0-2-.895-2-2V10c0-1.105.895-2 2-2h4V5c0-.552.448-1 1-1h5V1c0-.552.448-1 1-1h38zM14 16H2v46h12V16zm48 0H16v46h46V16zM33 43c.552 0 1 .448 1 1s-.448 1-1 1H21c-.552 0-1-.448-1-1s.448-1 1-1h12zm16 0c.552 0 1 .448 1 1s-.448 1-1 1H37c-.552 0-1-.448-1-1s.448-1 1-1h12zM9 43c.552 0 1 .448 1 1 0 .513-.386.936-.883.993L9 45H7c-.552 0-1-.448-1-1 0-.513.386-.936.883-.993L7 43h2zm0-5c.552 0 1 .448 1 1 0 .513-.386.936-.883.993L9 40H7c-.552 0-1-.448-1-1 0-.513.386-.936.883-.993L7 38h2zm20-1c.552 0 1 .448 1 1s-.448 1-1 1h-8c-.552 0-1-.448-1-1s.448-1 1-1h8zm12 0c.552 0 1 .448 1 1s-.448 1-1 1h-8c-.552 0-1-.448-1-1s.448-1 1-1h8zm-12-5c.552 0 1 .448 1 1s-.448 1-1 1h-8c-.552 0-1-.448-1-1s.448-1 1-1h8zm12 0c.552 0 1 .448 1 1s-.448 1-1 1h-8c-.552 0-1-.448-1-1s.448-1 1-1h8zM9 32c.552 0 1 .448 1 1 0 .513-.386.936-.883.993L9 34H7c-.552 0-1-.448-1-1 0-.513.386-.936.883-.993L7 32h2zm24-6c.552 0 1 .448 1 1s-.448 1-1 1H21c-.552 0-1-.448-1-1s.448-1 1-1h12zm16 0c.552 0 1 .448 1 1s-.448 1-1 1H37c-.552 0-1-.448-1-1s.448-1 1-1h12zM9 26c.552 0 1 .448 1 1 0 .513-.386.936-.883.993L9 28H7c-.552 0-1-.448-1-1 0-.513.386-.936.883-.993L7 26h2zm5-16H2v4h12v-4zm48 0H16v4h46v-4zm-6-4H8v2h48V6zm-6-4H14v2h36V2z"/>
</svg>
