<svg xmlns="http://www.w3.org/2000/svg" width="16" height="16" viewBox="0 0 16 16">
    <g fill="none" fill-rule="evenodd" opacity=".6">
        <g fill="#C2C2C2" fill-rule="nonzero">
            <g>
                <g>
                    <path d="M14.467 0H4.05c-.294 0-.533.24-.533.536v1.845H1.533c-.294 0-.533.24-.533.536v12.547c0 .295.239.536.533.536H11.95c.294 0 .533-.24.533-.536v-1.845h1.984c.294 0 .533-.24.533-.536V.536C15 .241 14.761 0 14.467 0zM1.931 15.063V3.319h7.185v1.928c0 .283.229.514.51.514h1.925v9.301h-9.62zm8.116-11.084l.842.844h-.842v-.844zm4.022 8.702h-1.586v-7.36c0-.144-.055-.278-.157-.38L9.93 2.538c-.1-.101-.234-.157-.376-.157H4.449V.938h9.62V12.68z" transform="translate(-312 -566) translate(16 442) translate(296 124)"/>
                </g>
            </g>
        </g>
    </g>
</svg>
