<svg xmlns="http://www.w3.org/2000/svg" width="16" height="16" viewBox="0 0 16 16">
    <g fill="none" fill-rule="evenodd" opacity=".6">
        <g fill="#C2C2C2" fill-rule="nonzero">
            <g>
                <g>
                    <g>
                        <path d="M11.5 2c.828 0 1.5.672 1.5 1.5v9c0 .828-.672 1.5-1.5 1.5h-7c-.828 0-1.5-.672-1.5-1.5v-9C3 2.672 3.672 2 4.5 2zm0 1h-7c-.276 0-.5.224-.5.5v9c0 .276.224.5.5.5h7c.276 0 .5-.224.5-.5v-9c0-.276-.224-.5-.5-.5zm1-3c1.325 0 2.41 1.032 2.495 2.336L15 2.5v8c0 .276-.224.5-.5.5-.245 0-.45-.177-.492-.41L14 10.5v-8c0-.78-.595-1.42-1.356-1.493L12.5 1h-6C6.224 1 6 .776 6 .5c0-.245.177-.45.41-.492L6.5 0h6z" transform="translate(-267 -308) translate(16 88) translate(0 208) translate(251 12)"/>
                    </g>
                </g>
            </g>
        </g>
    </g>
</svg>
