<svg xmlns="http://www.w3.org/2000/svg" width="32" height="32" viewBox="0 0 32 32">
    <g fill="none" fill-rule="evenodd">
        <g>
            <g>
                <g>
                    <g transform="translate(-296 -972) translate(0 504) translate(16 444) translate(280 24)">
                        <path d="M0 0H32V32H0z"/>
                        <path fill="#333" fill-rule="nonzero" d="M14 21h4v5h7c.552 0 1 .448 1 1v2c0 .552-.448 1-1 1H7c-.552 0-1-.448-1-1v-2c0-.552.448-1 1-1h7v-5z"/>
                        <rect width="32" height="21" y="2" fill="#85ACB0" fill-rule="nonzero" rx="2"/>
                        <path fill="#FFF" fill-opacity=".56" fill-rule="nonzero" d="M7.086 7.586c.78-.781 2.047-.781 2.828 0 .74.74.78 1.915.117 2.701l-.117.127-1.973 1.973 1.86 1.594c.797.683.925 1.857.32 2.692l-.102.129c-.683.796-1.857.924-2.692.318l-.129-.101-3.5-3c-.842-.723-.93-1.982-.224-2.812l.112-.121 3.5-3.5z"/>
                        <path fill="#FFF" fill-opacity=".56" fill-rule="nonzero" d="M25.587 7.586c.781-.781 2.047-.781 2.828 0 .74.74.78 1.915.117 2.701l-.117.127-1.973 1.973 1.86 1.594c.797.683.925 1.857.32 2.692l-.102.129c-.683.796-1.857.924-2.692.318l-.128-.101-3.5-3c-.843-.723-.93-1.982-.225-2.812l.112-.121 3.5-3.5z" transform="matrix(-1 0 0 1 50.502 0)"/>
                        <path fill="#FFF" fill-opacity=".56" fill-rule="nonzero" d="M15.603 7.368c.35-1.048 1.482-1.614 2.53-1.265.998.333 1.56 1.376 1.309 2.38l-.044.15-3 9c-.35 1.048-1.482 1.614-2.53 1.265-.998-.333-1.559-1.376-1.308-2.38l.043-.15 3-9z"/>
                    </g>
                </g>
            </g>
        </g>
    </g>
</svg>
