<svg xmlns="http://www.w3.org/2000/svg" width="64" height="60" viewBox="0 0 64 60">
    <defs>
        <linearGradient id="prefix__a" x1="0%" x2="100%" y1="93.945%" y2="6.055%">
            <stop offset="0%" stop-color="#FF444F"/>
            <stop offset="100%" stop-color="#FF6444"/>
        </linearGradient>
    </defs>
    <g fill="none" fill-rule="evenodd">
        <path d="M0 0H64V64H0z" transform="translate(0 -2)"/>
        <path fill="url(#prefix__a)" d="M13 16c.552 0 1 .448 1 1 0 .513-.386.936-.883.993L13 18H5c-.513 0-.936.386-.993.883L4 19v34h2V23c0-1.598 1.249-2.904 2.824-2.995L9 20h4c.552 0 1 .448 1 1 0 .513-.386.936-.883.993L13 22H9c-.513 0-.936.386-.993.883L8 23v30h16l.001.073c.4.111.757.345 1.02.672l.108.146L26.535 56h10.93l1.406-2.11c.27-.403.672-.69 1.129-.817V53h16V23c0-.513-.386-.936-.883-.993L55 22h-4c-.552 0-1-.448-1-1 0-.513.386-.936.883-.993L51 20h4c1.598 0 2.904 1.249 2.995 2.824L58 23v30h2V19c0-.513-.386-.936-.883-.993L59 18h-8c-.552 0-1-.448-1-1 0-.513.386-.936.883-.993L51 16h8c1.598 0 2.904 1.249 2.995 2.824L62 19v34c1.054 0 1.918.816 1.995 1.85L64 55v5c0 1.054-.816 1.918-1.85 1.995L62 62H2C.946 62 .082 61.184.005 60.15L0 60v-5c0-1.054.816-1.918 1.85-1.995L2 53V19c0-1.598 1.249-2.904 2.824-2.995L5 16h8zm10.465 39H2v5h60v-5H40.535l-1.406 2.11c-.34.51-.893.833-1.498.883l-.166.007h-10.93c-.613 0-1.189-.28-1.566-.756l-.098-.135L23.465 55zM27 2c1.306 0 2.418.835 2.83 2H44c1.598 0 2.904 1.249 2.995 2.824L47 7v1.671c1.107.392 1.916 1.414 1.994 2.635L49 11.5V28c0 1.598-1.249 2.904-2.824 2.995L46 31H18c-1.598 0-2.904-1.249-2.995-2.824L15 28V5c0-1.598 1.249-2.904 2.824-2.995L18 2h9zm0 2h-9c-.513 0-.936.386-.993.883L17 5v23c0 .513.386.936.883.993L18 29h28c.513 0 .936-.386.993-.883L47 28V11.5c0-.513-.386-.936-.883-.993L46 10.5H31c-1.598 0-2.904-1.249-2.995-2.824L28 7.5V5c0-.552-.448-1-1-1zm6.294 10.259c.534.143.85.691.707 1.225l-2.07 7.727c-.143.533-.692.85-1.225.707-.534-.143-.85-.691-.707-1.225l2.07-7.727c.143-.534.692-.85 1.225-.707zm-5.597 1.024c.365.355.401.922.102 1.318l-.082.096-2.303 2.37 2.282 2.215c.366.355.402.922.103 1.319l-.081.095c-.355.366-.922.402-1.319.103l-.095-.081-3-2.912c-.366-.355-.403-.922-.103-1.319l.082-.095 3-3.089c.385-.396 1.018-.405 1.414-.02zm9.927-.064l.093.084 3 3.089.082.095c.275.364.267.87-.018 1.226l-.085.093-3 2.912-.095.081c-.364.275-.87.267-1.226-.018l-.093-.085-.081-.095c-.275-.364-.267-.87.018-1.226l.085-.093 2.282-2.215-2.303-2.37-.082-.096c-.3-.396-.263-.963.102-1.318.366-.356.933-.375 1.321-.064zM44 6H30v1.5c0 .513.386.936.883.993L31 8.5h14V7c0-.513-.386-.936-.883-.993L44 6z" transform="translate(0 -2)"/>
    </g>
</svg>
