<svg xmlns="http://www.w3.org/2000/svg" width="64" height="64" viewBox="0 0 64 64">
    <path fill="#FF444F" d="M34.84 0c1.009 0 1.945.507 2.499 1.34l.105.172L40.581 7H61c1.598 0 2.904 1.249 2.995 2.824L64 10v40c0 .463-.063.912-.18 1.338l.012-.086C62.746 58.468 56.52 64 49 64c-6.082 0-11.319-3.62-13.673-8.823l-.078-.176L2 55c-1.105 0-2-.895-2-2V2C0 .895.895 0 2 0h32.84zM49 36c-7.18 0-13 5.82-13 13s5.82 13 13 13 13-5.82 13-13-5.82-13-13-13zm1.16 2c.553 0 1 .448 1 1v1.223c1.797.408 3.39 1.353 4.6 2.657l1.06-.612c.479-.276 1.09-.112 1.367.366l1 1.732c.276.478.112 1.09-.366 1.366l-1.059.612c.259.84.398 1.732.398 2.656 0 .924-.139 1.816-.398 2.656l1.059.612c.444.256.617.802.418 1.262l-.052.104-1 1.732c-.257.444-.802.617-1.262.419l-.104-.053-1.061-.612c-1.21 1.304-2.803 2.25-4.6 2.657V59c0 .552-.447 1-1 1h-2c-.552 0-1-.448-1-1v-1.223c-1.796-.408-3.388-1.353-4.599-2.657l-1.06.612c-.48.276-1.09.112-1.367-.366l-1-1.732c-.276-.478-.112-1.09.366-1.366l1.059-.612c-.26-.84-.399-1.732-.399-2.656 0-.924.14-1.816.399-2.656l-1.059-.612c-.444-.256-.617-.802-.418-1.262l.052-.104 1-1.732c.257-.444.802-.617 1.262-.419l.104.053 1.061.612c1.21-1.304 2.803-2.25 4.6-2.657V39c0-.552.447-1 1-1h2zm-1 6c2.762 0 5 2.239 5 5s-2.238 5-5 5c-2.761 0-5-2.239-5-5s2.239-5 5-5zM62 13H16v39.999l18.54.002-.017-.062C34.182 51.684 34 50.363 34 49c0-8.284 6.716-15 15-15 5.453 0 10.226 2.91 12.852 7.261l.148.25V13zm-48 0H2v40l12-.001V13zm35.16 33c-1.656 0-3 1.343-3 3s1.344 3 3 3c1.657 0 3-1.343 3-3s-1.343-3-3-3zm-.553-3.978H48.6l-.032.003-.012.001-.024.002-.025.002-.106.011-.209.026-.018.002-.022.003-.016.002-.027.005.016-.003-.034.005-.254.044-.104.021-.215.048-.042.01-.061.016.016-.005-.018.005-.007.002-.272.076c-1.045.316-1.986.869-2.761 1.596l-.02.02-.187.183-.065.067c-.128.133-.25.271-.367.414l-.17.218-.175.243-.165.251-.024.039-.039.064.022-.037-.036.06-.012.02-.044.076-.005.008-.009.016-.013.023-.079.143-.005.01-.045.085-.014.029-.016.03.002-.002-.015.028-.022.046-.027.056.018-.039-.03.064-.006.011.006-.011-.053.113.036-.078-.016.036-.02.042-.009.021-.125.299c-.04.102-.079.206-.114.31l-.016.047-.067.214-.005.018v.001c-.034.114-.064.23-.092.346l-.046.211c-.094.456-.143.928-.143 1.411s.05.955.143 1.41l.046.212.076.29.016.056.035.117.008.023.03.092.104.295.118.289.016.038.016.034.029.064.016.035.033.07.045.092.018.035.045.086-.024-.043.049.092.092.168.005.009.013.023.041.069-.013-.021.029.048.053.087-.053-.087.17.272c.06.091.124.181.188.27.18.246.375.48.585.7l.089.092.198.192c.86.807 1.925 1.398 3.108 1.689l.287.063.02.005-.019-.005.044.009.027.005.029.005.218.038.04.006.034.005.016.002.103.015.175.02-.058-.008.106.011.027.003.019.001h-.006l.024.002.037.003.066.004-.055-.004.104.007.135.007.101.005c.067.002.135.003.202.003l.294-.006.106-.005.169-.013.02-.002.056-.003.053-.005-.033.002.055-.006.298-.035.085-.014.151-.026.089-.017.08-.016-.03.008.079-.018.099-.02.086-.021.138-.037.248-.069c1.173-.357 2.214-1.013 3.036-1.88l.177-.194.17-.2.079-.099.009-.012.059-.075.025-.035.029-.038.044-.06.009-.013.071-.101.016-.02.104-.156.028-.044.038-.061h.001l.008-.014.068-.112-.052.087.07-.114.022-.041.007-.012.023-.039.014-.023c.107-.19.205-.384.295-.584.089-.199.169-.402.239-.61l.007-.023.008-.023.067-.215.022-.074c.172-.608.264-1.25.264-1.912 0-.683-.097-1.344-.28-1.968l-.044-.141.008.024-.007-.023-.03-.092c-.065-.199-.14-.394-.222-.584-.084-.194-.177-.383-.278-.568l-.03-.054-.028-.049-.005-.009-.014-.024-.043-.075-.009-.015-.008-.014-.001-.002-.031-.05-.017-.027-.024-.039-.063-.1.024.039-.05-.08-.112-.162-.075-.106-.063-.084-.015-.021-.011-.014-.059-.075-.011-.016-.018-.022c-.128-.162-.263-.317-.405-.466l-.045-.047-.088-.09c-.045-.045-.09-.089-.136-.132l-.02-.02c-.867-.813-1.94-1.407-3.133-1.697-.088-.021-.176-.04-.265-.059l.031.007-.08-.016-.084-.016-.223-.037-.056-.007-.258-.032-.058-.006-.023-.002-.042-.004-.191-.013-.108-.006-.3-.006-.299.006-.052.003-.052.002-.145.01.028-.002.102-.007-.135.01zM9 35c.552 0 1 .448 1 1 0 .513-.386.936-.883.993L9 37H7c-.552 0-1-.448-1-1 0-.513.386-.936.883-.993L7 35h2zm26 0c.552 0 1 .448 1 1s-.448 1-1 1H21c-.552 0-1-.448-1-1s.448-1 1-1h14zm2-6c.552 0 1 .448 1 1s-.448 1-1 1h-6c-.552 0-1-.448-1-1s.448-1 1-1h6zm-10 0c.552 0 1 .448 1 1s-.448 1-1 1h-6c-.552 0-1-.448-1-1s.448-1 1-1h6zM9 29c.552 0 1 .448 1 1 0 .513-.386.936-.883.993L9 31H7c-.552 0-1-.448-1-1 0-.513.386-.936.883-.993L7 29h2zm0-6c.552 0 1 .448 1 1 0 .513-.386.936-.883.993L9 25H7c-.552 0-1-.448-1-1 0-.513.386-.936.883-.993L7 23h2zm38 0c.552 0 1 .448 1 1s-.448 1-1 1h-6c-.552 0-1-.448-1-1s.448-1 1-1h6zm-10 0c.552 0 1 .448 1 1s-.448 1-1 1h-6c-.552 0-1-.448-1-1s.448-1 1-1h6zm-10 0c.552 0 1 .448 1 1s-.448 1-1 1h-6c-.552 0-1-.448-1-1s.448-1 1-1h6zm8-6c.552 0 1 .448 1 1s-.448 1-1 1H21c-.552 0-1-.448-1-1s.448-1 1-1h14zm12 0c.552 0 1 .448 1 1s-.448 1-1 1h-8c-.552 0-1-.448-1-1s.448-1 1-1h8zM9 17c.552 0 1 .448 1 1 0 .513-.386.936-.883.993L9 19H7c-.552 0-1-.448-1-1 0-.513.386-.936.883-.993L7 17h2zM19.419 2H2v8.999h60V10c0-.473-.329-.87-.77-.974l-.113-.02L61 9H25.16c-1.076 0-2.07-.577-2.604-1.512L19.419 2zm15.42 0l-13.117-.001 2.57 4.497c.159.277.438.46.75.497l.119.007h13.115l-2.568-4.496c-.159-.277-.438-.46-.75-.497L34.839 2z"/>
</svg>
