<svg xmlns="http://www.w3.org/2000/svg" width="32" height="32" viewBox="0 0 32 32">
    <g fill="none" fill-rule="evenodd">
        <g>
            <g>
                <g>
                    <g transform="translate(-296 -652) translate(0 504) translate(16 124) translate(280 24)">
                        <path d="M0 0H32V32H0z"/>
                        <path fill="#000" fill-rule="nonzero" d="M16 0c1.177 0 2.206.536 2.756 1.333H22c.552 0 1 .448 1 1V7c0 .552-.448 1-1 1H10c-.552 0-1-.448-1-1V2.333c0-.552.448-1 1-1h3.244C13.794.536 14.823 0 16 0z"/>
                        <rect width="28" height="28" x="2" y="4" fill="#FF444F" fill-rule="nonzero" rx="1"/>
                        <path fill="#FFF" fill-opacity=".56" d="M9 18c1.105 0 2 .895 2 2s-.895 2-2 2-2-.895-2-2 .895-2 2-2zm15 0c.552 0 1 .448 1 1v2c0 .552-.448 1-1 1H14c-.552 0-1-.448-1-1v-2c0-.552.448-1 1-1h10zM9 10c1.105 0 2 .895 2 2s-.895 2-2 2-2-.895-2-2 .895-2 2-2zm15 0c.552 0 1 .448 1 1v2c0 .552-.448 1-1 1H14c-.552 0-1-.448-1-1v-2c0-.552.448-1 1-1h10z"/>
                    </g>
                </g>
            </g>
        </g>
    </g>
</svg>
