<svg xmlns="http://www.w3.org/2000/svg" width="32" height="32" viewBox="0 0 32 32">
    <g fill="none" fill-rule="evenodd">
        <path d="M0 0H32V32H0z"/>
        <path fill="#FF444F" fill-rule="nonzero" d="M12 0c1.177 0 2.206.536 2.756 1.333H18c.552 0 1 .448 1 1V4h4c.552 0 1 .448 1 1v26c0 .552-.448 1-1 1H1c-.552 0-1-.448-1-1V5c0-.552.448-1 1-1h4V2.333c0-.552.448-1 1-1h3.244C9.794.536 10.823 0 12 0z"/>
        <path fill="#FFF" fill-opacity=".56" d="M5 16c1.105 0 2 .895 2 2s-.895 2-2 2-2-.895-2-2 .895-2 2-2zm15 0c.552 0 1 .448 1 1v2c0 .552-.448 1-1 1H10c-.552 0-1-.448-1-1v-2c0-.552.448-1 1-1h10zM5 8c1.105 0 2 .895 2 2s-.895 2-2 2-2-.895-2-2 .895-2 2-2zm15 0c.552 0 1 .448 1 1v2c0 .552-.448 1-1 1H10c-.552 0-1-.448-1-1V9c0-.552.448-1 1-1h10z"/>
        <path fill="#000" fill-rule="nonzero" d="M31.144 12.034c.625.625.625 1.638 0 2.263l-1.697 1.697-.002-.002-9.205 9.206c-.086.095-.2.167-.339.201l-.108.019-1.885.19c-.47.046-.894-.345-.908-.806l.004-.1.189-1.884c.017-.17.085-.31.185-.414L28.315 11.47c.625-.625 1.638-.625 2.263 0l.566.565z"/>
    </g>
</svg>
